# xmcd
#
# Track frame offsets:
#	150
#	12248
#	27368
#	42217
#	56029
#	67378
#	80101
#	92288
#	103434
#	116481
#	128360
#	140985
#	154462
#	169456
#	182312
#	193953
#	205631
#	216973
#	230147
#	242438
#
# Disc length: 3378 seconds
#
# Revision: 1
# Processed by: cddbd v1.5.2PL0 Copyright (c) Steve Scherf et al.
# Submitted via: EZCDAudioConverter 7.0.6.1
#
DISCID=2a0d3014
DTITLE=Various Artist - Top Deck Presents: Ska Instrumentals 1/2
DYEAR=2013
DGENRE=
TTITLE0=Roland Alphonso - A Shot In The Dark [Take 1]
TTITLE1=Johnny Moore - Red Is Danger [Take 3]
TTITLE2=The Skatalites - Lawless Street
TTITLE3=Roland Alphonso - Determination [Take 1]
TTITLE4=Tommy McCook - Scattered Lights
TTITLE5=The Skatalites - Marcus Junior
TTITLE6=Roland Alphonso - VC10 (aka Shake A Lady) [Take 2]
TTITLE7=Jackie Mitto - Warlock
TTITLE8=The Skatalites - Confucious
TTITLE9=Roland Alphonso - Cleo's Back [Take 2]
TTITLE10=Baba Brooks - Shock Resistance (aka In A Little Spanish Town)
TTITLE11=Roland Alphonso - Non-Stop
TTITLE12=The Skatalites - China Clipper
TTITLE13=Roland Alphonso - Because Of You (aka Dahil Sayo) [Take 1]
TTITLE14=Lynn Taitt and The Skatalites - Ska-Ta-Shot [Take 1]
TTITLE15=The Skatalites - China Town
TTITLE16=Roland Alphonso - Rolli Rollin'
TTITLE17=Raymond Harper - Ti-Pi-Tin
TTITLE18=The Skatalites - The Reburial
TTITLE19=Roland Alphonso and Joshua Rosen - Step Down (High Riff)
EXTD=
EXTT0=
EXTT1=
EXTT2=
EXTT3=
EXTT4=
EXTT5=
EXTT6=
EXTT7=
EXTT8=
EXTT9=
EXTT10=
EXTT11=
EXTT12=
EXTT13=
EXTT14=
EXTT15=
EXTT16=
EXTT17=
EXTT18=
EXTT19=
PLAYORDER=
